<svg width="34" height="34" viewBox="0 0 34 34" fill="none" xmlns="http://www.w3.org/2000/svg">
<circle cx="17" cy="17" r="17" fill="#D9D9D9"/>
<circle cx="17" cy="17" r="17" fill="url(#paint0_linear_506_398)"/>
<path fill-rule="evenodd" clip-rule="evenodd" d="M24.9978 9.01728C24.6232 9.04844 24.3712 9.15086 24.1182 9.37482C24.0419 9.44243 22.668 10.8304 21.0653 12.4593C16.7983 16.7956 13.7947 19.8103 13.4721 20.0802L13.4052 20.1363L13.2795 20.0344C13.2104 19.9783 12.2355 19.0007 11.113 17.8618C9.99045 16.7229 8.99566 15.7295 8.90231 15.6541C8.69941 15.4902 8.45385 15.3631 8.22257 15.3022C8.00264 15.2443 7.61152 15.2241 7.3922 15.2593C6.5512 15.3945 6.00249 16.1618 6.00004 17.2062C5.99944 17.4564 6.00569 17.5108 6.04681 17.6143C6.10152 17.752 6.21189 17.9406 6.34695 18.1271C6.4457 18.2635 12.0976 23.9832 12.3 24.1517C12.3641 24.205 12.5023 24.2893 12.6072 24.3391C12.8752 24.4663 13.072 24.5063 13.4333 24.5074C13.7748 24.5084 13.9072 24.4803 14.1746 24.3501C14.4612 24.2105 14.6396 24.0668 15.0219 23.6672C15.619 23.0431 25.733 12.8376 26.1248 12.4638C26.6321 11.9799 26.8037 11.734 26.927 11.3142C27.0093 11.0339 27.0243 10.5978 26.9604 10.3428C26.8578 9.93318 26.6226 9.57928 26.2798 9.3185C25.8937 9.02481 25.6359 8.96423 24.9978 9.01728Z" fill="white"/>
<defs>
<linearGradient id="paint0_linear_506_398" x1="0" y1="17" x2="34" y2="17" gradientUnits="userSpaceOnUse">
<stop stop-color="#8168FF"/>
<stop offset="1" stop-color="#497CFF"/>
</linearGradient>
</defs>
</svg>
