<svg width="35" height="29" viewBox="0 0 35 29" fill="none" xmlns="http://www.w3.org/2000/svg">
<path fill-rule="evenodd" clip-rule="evenodd" d="M32.0517 1.0105C31.8029 1.0958 24.6366 3.68 16.1266 6.75335C7.61665 9.8267 0.51862 12.4566 0.353186 12.5979C0.15894 12.7636 0.0523682 13.0454 0.0523682 13.3934C0.0523682 13.7264 0.155997 14.0156 0.323445 14.1502C0.47246 14.2701 2.39075 14.9449 4.58601 15.6497C6.78142 16.3548 8.71165 16.8984 8.87538 16.8581C9.03926 16.8176 13.3074 14.4009 18.3603 11.4874C23.4131 8.57396 27.6787 6.15787 27.8391 6.11829C28.0053 6.07725 28.1054 6.11274 28.0715 6.20052C28.0388 6.28553 25.1889 8.8021 21.7385 11.7929C18.2881 14.7839 15.0569 17.5948 14.5581 18.0394L13.651 18.8477L13.3748 22.3645C13.1359 25.4061 13.1282 25.9258 13.3173 26.21C13.4375 26.3908 13.651 26.5386 13.7918 26.5386C13.9326 26.5386 15.0793 25.5738 16.3401 24.3944L18.6324 22.2501L22.6252 25.1004C24.8212 26.6682 26.7702 28.0274 26.9562 28.121C27.1424 28.2147 27.442 28.2913 27.6223 28.2913C27.8024 28.2913 28.1458 28.1958 28.3852 28.0791C28.6245 27.9624 28.8996 27.6832 28.9966 27.4584C29.0934 27.2337 30.4277 21.6724 31.9615 15.1C33.4953 8.52752 34.7502 2.92108 34.7502 2.64124C34.7502 2.36139 34.6487 1.94746 34.5247 1.72122C34.4006 1.49512 34.059 1.20257 33.7655 1.07126C33.472 0.939954 33.0681 0.837714 32.868 0.843994C32.6679 0.850275 32.3006 0.925203 32.0517 1.0105Z" fill="white"/>
</svg>
