<svg width="33" height="35" viewBox="0 0 33 35" fill="none" xmlns="http://www.w3.org/2000/svg">
<path fill-rule="evenodd" clip-rule="evenodd" d="M16.2789 0.672966C16.1804 0.688369 15.9814 0.734612 15.8367 0.775675C15.6919 0.816737 15.4563 0.905321 15.313 0.972562C15.1697 1.03984 14.9776 1.14234 14.8861 1.20039C14.7946 1.25848 14.6055 1.40795 14.4659 1.53259C14.3264 1.65719 14.1398 1.85353 14.0513 1.96888C13.9629 2.08419 13.8234 2.30954 13.7415 2.46964C13.6595 2.62972 13.5571 2.88504 13.514 3.03699C13.4592 3.2297 13.4339 3.42866 13.4304 3.69472L13.4253 4.07617L13.0753 4.17145C12.8828 4.22384 12.5333 4.3367 12.2986 4.42221C12.064 4.50776 11.6881 4.6678 11.4633 4.7779C11.2385 4.88796 10.889 5.07863 10.6867 5.20154C10.4843 5.32446 10.1515 5.54973 9.94714 5.7021C9.74278 5.85451 9.40838 6.13528 9.20405 6.32609C8.99972 6.5169 8.72076 6.80292 8.58415 6.96168C8.44754 7.12044 8.23071 7.39797 8.1023 7.57842C7.9739 7.75887 7.75995 8.093 7.62682 8.32093C7.49368 8.54887 7.32678 8.86746 7.25592 9.02891C7.18506 9.19037 7.06032 9.51828 6.97877 9.75761C6.89719 9.99698 6.80499 10.3233 6.77389 10.4829C6.74282 10.6424 6.70007 10.9128 6.67895 11.0838C6.6578 11.2547 6.62415 11.7054 6.60414 12.0853C6.58413 12.4652 6.54815 13.3044 6.52418 13.9502C6.49556 14.7209 6.49027 15.6111 6.5088 16.5404C6.52433 17.3192 6.5352 18.104 6.53295 18.2844C6.53073 18.4649 6.51246 18.7913 6.49234 19.0097C6.47222 19.2281 6.43727 19.5467 6.41468 19.7177C6.39208 19.8886 6.33291 20.2383 6.28317 20.4947C6.23346 20.7511 6.13598 21.163 6.0666 21.4099C5.99718 21.6568 5.86719 22.0609 5.77769 22.3078C5.68823 22.5548 5.52754 22.9511 5.42066 23.1885C5.31378 23.4259 5.12569 23.8048 5.00272 24.0304C4.87975 24.2561 4.65164 24.6374 4.49584 24.8779C4.34007 25.1183 4.09291 25.4726 3.94668 25.6653C3.80042 25.8579 3.5283 26.1914 3.34198 26.4065C3.15562 26.6215 2.71868 27.0619 2.37097 27.385C2.02325 27.7082 1.53471 28.126 1.28527 28.3135L0.831787 28.6544L0.841477 29.8671L0.851203 31.0799H16.8462H32.8411L32.8509 29.8643L32.8605 28.6488L32.592 28.4504C32.4442 28.3413 32.1482 28.1091 31.934 27.9343C31.7198 27.7595 31.3513 27.4293 31.1152 27.2006C30.879 26.9718 30.5448 26.6244 30.3725 26.4284C30.2003 26.2325 29.93 25.9022 29.7719 25.6945C29.6138 25.4867 29.3779 25.1559 29.2478 24.9593C29.1177 24.7627 28.9046 24.4121 28.7742 24.1801C28.6438 23.9481 28.4429 23.5563 28.3277 23.3094C28.2126 23.0624 28.0215 22.5884 27.903 22.256C27.7846 21.9236 27.6371 21.4574 27.5754 21.22C27.5136 20.9825 27.4292 20.6095 27.3879 20.3911C27.3465 20.1727 27.2872 19.7841 27.2559 19.5277C27.2247 19.2713 27.1915 18.6963 27.182 18.2499C27.1725 17.8035 27.1567 16.2572 27.1469 14.8136C27.1371 13.37 27.1119 11.9636 27.091 11.6882C27.0701 11.4127 27.0278 11.0218 26.997 10.8194C26.9661 10.6171 26.8844 10.2589 26.8153 10.0235C26.7462 9.78814 26.6282 9.44866 26.553 9.26907C26.4778 9.08949 26.3252 8.77162 26.2137 8.56268C26.1023 8.35374 25.9274 8.05301 25.8249 7.89442C25.7224 7.7358 25.5187 7.45606 25.3721 7.27278C25.2255 7.08946 24.9641 6.79187 24.7911 6.61142C24.6182 6.43098 24.3533 6.18142 24.2025 6.05685C24.0517 5.93228 23.8118 5.74358 23.6695 5.63756C23.5271 5.5315 23.2275 5.33361 23.0038 5.19778C22.78 5.06199 22.4014 4.85764 22.1624 4.74371C21.9233 4.62977 21.5738 4.48023 21.3857 4.41134C21.1976 4.34247 20.8732 4.23818 20.6648 4.17957L20.286 4.07306L20.2705 3.6759C20.2605 3.41937 20.2272 3.18246 20.1762 3.00681C20.1327 2.85724 20.0486 2.63476 19.9892 2.5124C19.9298 2.39 19.807 2.186 19.7165 2.05905C19.6259 1.93213 19.4381 1.72088 19.2992 1.58968C19.1603 1.45848 18.8982 1.26083 18.7167 1.15049C18.5353 1.04015 18.2441 0.901177 18.0696 0.841672C17.895 0.782133 17.6274 0.712233 17.4749 0.686297C17.3223 0.660395 17.0311 0.640468 16.8277 0.642057C16.6243 0.643611 16.3773 0.657528 16.2789 0.672966ZM13.6657 32.2498C13.6657 32.2759 13.7083 32.3874 13.7605 32.4976C13.8127 32.6077 13.9263 32.8 14.013 32.9249C14.0996 33.0498 14.2579 33.2499 14.3648 33.3696C14.4716 33.4892 14.6828 33.679 14.834 33.7912C14.9852 33.9034 15.2128 34.0494 15.3396 34.1155C15.4665 34.1816 15.7284 34.2866 15.9216 34.3488C16.2596 34.4575 16.2948 34.4619 16.8462 34.4619C17.3975 34.4619 17.4328 34.4575 17.7707 34.3488C17.964 34.2866 18.2259 34.1816 18.3527 34.1155C18.4796 34.0494 18.7071 33.9034 18.8584 33.7912C19.0096 33.679 19.2166 33.4937 19.3185 33.3794C19.4203 33.2651 19.5547 33.1023 19.6171 33.0176C19.6795 32.9329 19.7972 32.7389 19.8786 32.5865C19.9601 32.4341 20.0267 32.2854 20.0267 32.2559C20.0267 32.2078 19.696 32.2023 16.8462 32.2023C14.1716 32.2023 13.6657 32.2098 13.6657 32.2498Z" fill="white"/>
</svg>
