<svg width="36" height="26" viewBox="0 0 36 26" fill="none" xmlns="http://www.w3.org/2000/svg">
<path fill-rule="evenodd" clip-rule="evenodd" d="M6.16972 0.297433C5.98545 0.38284 5.85828 0.553853 5.67578 0.961738C5.52271 1.30377 5.13661 2.14569 3.89387 4.8475C3.67595 5.32121 3.23293 6.28564 2.90937 6.99068C2.58581 7.69573 2.20835 8.51594 2.07053 8.81339C1.93274 9.11083 1.66764 9.68768 1.48139 10.0953C1.29519 10.5029 1.02726 11.088 0.886048 11.3956C0.585405 12.0504 0.551991 12.2116 0.664887 12.4626C0.81652 12.7999 0.819028 12.8015 2.18882 13.4761C3.40394 14.0746 3.57224 14.1352 3.82403 14.0645C4.18772 13.9625 4.10442 14.1145 5.66999 10.6962C6.08878 9.78182 6.52242 8.83542 6.63365 8.59306C6.74489 8.3507 7.00946 7.77384 7.22159 7.31116C7.43376 6.84847 7.7072 6.25359 7.82924 5.9892C9.59193 2.17113 9.51793 2.34443 9.49937 2.07819C9.4881 1.91651 9.45284 1.80219 9.37799 1.68473C9.28191 1.53407 9.19039 1.47766 8.35772 1.05648C6.8393 0.28834 6.72969 0.240469 6.49359 0.242231C6.37915 0.243113 6.23339 0.26795 6.16972 0.297433ZM29.0884 0.411602C28.8974 0.508706 28.6196 0.647993 28.471 0.721101C26.8744 1.50707 26.8575 1.51764 26.7077 1.82001C26.6492 1.93827 26.6344 2.02756 26.6482 2.18055C26.666 2.379 26.7831 2.64728 28.0659 5.42836C28.198 5.71479 28.4713 6.30967 28.6732 6.75033C29.4279 8.39753 29.8382 9.29009 30.0912 9.8349C30.2344 10.1434 30.5037 10.7292 30.6896 11.1368C31.673 13.2925 31.8984 13.7689 31.9752 13.8547C32.2157 14.1232 32.5609 14.149 33.0239 13.9331C33.7247 13.6062 35.1393 12.8922 35.2413 12.8139C35.3907 12.6992 35.5511 12.3811 35.5511 12.1997C35.5511 12.0368 35.4632 11.814 35.0257 10.8685C34.7123 10.1912 33.8503 8.3136 33.2361 6.97065C33.0295 6.51898 32.7643 5.94213 32.6468 5.68875C32.2664 4.86897 31.5757 3.36362 31.2405 2.6242C31.0608 2.22762 30.7605 1.57865 30.5732 1.18207C30.1722 0.332926 30.1144 0.271835 29.6906 0.248841C29.4544 0.236062 29.4101 0.248 29.0884 0.411602ZM18.4788 2.84946C17.4754 2.9293 16.3498 3.26852 15.5299 3.73826L15.2369 3.90611L12.6191 3.92614L10.0014 3.94617L9.60073 4.72732C9.38034 5.15696 9.19969 5.52198 9.19931 5.53853C9.19888 5.55507 9.97117 5.56857 10.9155 5.56857C11.8598 5.56857 12.6325 5.57771 12.6325 5.58888C12.6325 5.60002 12.522 5.81185 12.387 6.05958C11.8084 7.12124 11.7729 7.2292 11.7258 8.07229C11.6517 9.39998 11.5636 9.84628 11.2035 10.7197C10.9959 11.223 10.9672 11.4288 11.0693 11.6824C11.2126 12.0385 11.6012 12.3725 11.9943 12.4775C12.2846 12.555 13.0062 12.5562 13.419 12.4798C13.6058 12.4453 13.8506 12.3601 14.0532 12.2592C15.076 11.7496 15.858 10.7351 16.1485 9.54099C16.2094 9.29033 16.2595 9.04661 16.2597 8.99938C16.2603 8.84988 16.4755 8.51627 16.7277 8.27387C17.2238 7.797 17.7917 7.64105 18.4941 7.78883C19.095 7.91525 19.2461 8.00314 19.7166 8.5002C20.1726 8.98184 20.5166 9.29803 24.962 13.3214C28.9025 16.8878 29.1158 17.0855 29.1949 17.2439C29.2526 17.3595 29.2807 17.5057 29.2928 17.7528C29.3076 18.0575 29.2987 18.1224 29.2191 18.2878C29.1086 18.5176 28.7269 18.8928 28.4957 18.999C28.402 19.042 28.2257 19.0866 28.1038 19.098C27.6264 19.143 27.7773 19.2403 24.1548 16.5518C22.327 15.1952 20.7714 14.0528 20.6979 14.0131C20.5216 13.9179 20.1505 13.9164 19.9974 14.0102C19.8355 14.1095 19.7182 14.3797 19.7506 14.5787C19.8052 14.914 19.9342 15.0461 20.9305 15.7869C21.4467 16.1707 22.9031 17.2526 24.1669 18.1911C25.8122 19.4129 26.4957 19.9429 26.5739 20.0577C26.7064 20.252 26.7491 20.5988 26.6783 20.9051C26.6211 21.1529 26.3832 21.4507 26.1575 21.5572C25.9526 21.6538 25.5771 21.6549 25.3365 21.5597C25.2355 21.5196 24.849 21.2617 24.4776 20.9864C24.1063 20.7111 23.1947 20.0377 22.452 19.4899C21.7093 18.9421 20.7134 18.2062 20.2389 17.8548C19.7644 17.5033 19.3194 17.1976 19.2499 17.1755C19.0537 17.1129 18.7845 17.1725 18.6311 17.3124C18.3792 17.542 18.3596 17.9183 18.5863 18.1703C18.654 18.2455 19.8195 19.1419 21.1762 20.1622C22.533 21.1826 23.6921 22.0803 23.7521 22.1573C23.8169 22.2403 23.8797 22.3895 23.9071 22.5248C23.9485 22.7296 23.9444 22.7807 23.8669 23.0307C23.7927 23.2698 23.7483 23.3398 23.5495 23.5308C23.29 23.7803 23.0935 23.8582 22.8216 23.8195C22.5454 23.7802 22.7377 23.9137 18.732 20.9812C18.1926 20.5864 17.7066 20.2457 17.652 20.2242C17.5337 20.1775 17.3257 20.2117 17.1974 20.299C17.0596 20.3928 16.9153 20.6746 16.9153 20.85C16.9153 20.9336 16.9487 21.0582 16.9897 21.1269C17.034 21.2012 17.7063 21.7474 18.6475 22.4736C19.8082 23.3693 20.2309 23.7169 20.2312 23.7756C20.2327 24.0218 19.9222 24.4089 19.6021 24.5599C19.405 24.6528 19.013 24.6607 18.7425 24.5773C18.5973 24.5325 18.1569 24.2809 18.0433 24.1777C18.0377 24.1726 18.0594 24.1031 18.0915 24.0234C18.1644 23.8425 18.1668 23.466 18.0968 23.2245C18.0261 22.9805 17.7586 22.5912 17.5403 22.4147C17.037 22.0076 16.4654 21.8998 16.0261 22.1293L15.8508 22.2209L15.9188 22.0168C15.9561 21.9045 15.9873 21.7257 15.988 21.6194C15.9894 21.3984 15.8397 20.9009 15.7054 20.6802C15.5212 20.3777 15.1958 20.0826 14.8506 19.905C14.5502 19.7505 14.4849 19.7323 14.1725 19.7168C13.7678 19.6967 13.5462 19.7496 13.3193 19.9202C13.1943 20.0143 13.1669 20.0236 13.189 19.9646C13.2044 19.9235 13.243 19.7853 13.2747 19.6575C13.466 18.8874 12.884 17.8987 12.0151 17.5177C11.7934 17.4205 11.7151 17.4076 11.3399 17.4069C10.9669 17.4062 10.8922 17.418 10.7226 17.5042C10.6165 17.5582 10.5123 17.6104 10.4911 17.6202C10.4699 17.6301 10.4821 17.6035 10.5182 17.5611C10.6723 17.3805 10.7948 17.0119 10.8118 16.6782C10.8636 15.6573 10.089 14.7562 9.06349 14.6443C8.71481 14.6063 8.38739 14.6916 7.95873 14.9323C7.92624 14.9506 6.51389 13.2397 6.17215 12.7682C6.11185 12.6849 6.05594 12.6236 6.04795 12.632C6.03993 12.6403 5.91218 12.9698 5.76402 13.3641L5.49466 14.0812L5.57855 14.2014C5.71814 14.4014 6.35477 15.2188 6.6862 15.6235C6.85759 15.8328 6.99815 16.0152 6.99854 16.0288C6.99896 16.0424 6.73906 16.3759 6.42098 16.7699C5.70691 17.6545 5.63685 17.7887 5.61667 18.3107C5.59236 18.9392 5.77671 19.4132 6.20263 19.8174C6.61799 20.2115 7.05664 20.3742 7.61483 20.3412C7.98462 20.3193 8.34742 20.1831 8.5077 20.0059C8.63078 19.8699 8.67245 19.8868 8.59185 20.04C8.53852 20.1414 8.52332 20.2635 8.52332 20.5909C8.52332 20.9931 8.52953 21.025 8.66573 21.3211C8.99265 22.032 9.63573 22.4953 10.3609 22.5426C10.7625 22.5688 11.051 22.4897 11.3138 22.2814C11.4388 22.1824 11.4786 22.1652 11.4581 22.219C11.258 22.7447 11.4099 23.4337 11.8374 23.9389C12.209 24.3781 12.762 24.6477 13.2884 24.6462C13.7779 24.6449 14.0804 24.4789 14.4371 24.0159L14.5605 23.8557L14.5182 23.9874C14.495 24.0598 14.4826 24.2404 14.4906 24.3887C14.5105 24.7533 14.66 25.0647 14.9709 25.3887C15.2948 25.7263 15.6203 25.886 16.0352 25.9109C16.5175 25.9399 16.6965 25.8323 17.167 25.2303L17.2825 25.0827L17.668 25.3413C18.0457 25.5947 18.4766 25.7964 18.8113 25.8765C19.0697 25.9384 19.6135 25.9271 19.8502 25.8549C20.3617 25.6989 20.9049 25.2499 21.2149 24.727C21.2965 24.5893 21.3739 24.4768 21.3868 24.4771C21.3997 24.4774 21.4884 24.5247 21.5839 24.5822C21.8218 24.7256 22.2476 24.9068 22.517 24.9793C23.6559 25.2857 24.5852 24.7117 25.0929 23.3883C25.1577 23.2194 25.2107 23.0554 25.2107 23.0239C25.2107 22.9786 25.3097 22.9616 25.6834 22.9428C26.417 22.906 26.8714 22.7335 27.2868 22.3342C27.6993 21.9376 27.948 21.3024 27.9495 20.6409L27.9502 20.3505H28.098C28.3676 20.3505 29.0764 20.196 29.2792 20.0929C29.8394 19.8083 30.3413 19.1376 30.5165 18.4392C30.691 17.7434 30.47 16.7877 29.9788 16.1149C29.8381 15.9219 29.8027 15.845 29.8237 15.7766C29.8386 15.7278 30.003 15.3373 30.1891 14.9088L30.5275 14.1296L30.363 13.7649C30.2725 13.5643 29.8116 12.5619 29.3387 11.5374C28.8658 10.5129 28.2852 9.25104 28.0485 8.73327C27.4478 7.4196 26.8096 6.03318 26.3085 4.95406L25.8823 4.03598L25.5947 4.02028C24.6357 3.96796 24.1174 3.88275 23.0711 3.60542C22.4971 3.45331 21.7778 3.25606 21.4725 3.16709C20.7976 2.97044 20.381 2.89276 19.7388 2.84397C19.1847 2.80187 19.0706 2.80239 18.4788 2.84946Z" fill="#A09292"/>
</svg>
